<!--?xml version="1.0" standalone="no"?-->
              <svg id="sw-js-blob-svg" viewBox="0 0 100 100" xmlns="http://www.w3.org/2000/svg" version="1.1">
                    <defs> 
                        <linearGradient id="sw-gradient" x1="0" x2="1" y1="1" y2="0">
                            <stop id="stop1" stop-color="rgba(37, 38, 42, 1)" offset="0%"></stop>
                            <stop id="stop2" stop-color="rgba(45, 46, 50, 1)" offset="100%"></stop>
                        </linearGradient>
                    </defs>
                <path fill="url(#sw-gradient)" d="M25.2,-35C32.6,-29.2,38.7,-21.9,39,-14.3C39.2,-6.7,33.6,1.2,29.8,8.7C26.1,16.2,24.1,23.4,19.4,30C14.8,36.6,7.4,42.7,-0.8,43.8C-9,44.9,-18,41.1,-25.4,35.3C-32.7,29.6,-38.3,21.9,-39.5,13.9C-40.7,5.8,-37.4,-2.6,-34.8,-11.5C-32.1,-20.3,-30.1,-29.5,-24.4,-35.9C-18.8,-42.3,-9.4,-45.9,-0.3,-45.6C8.8,-45.2,17.7,-40.8,25.2,-35Z" width="100%" height="100%" transform="translate(50 50)" stroke-width="0" style="transition: all 0.3s ease 0s;" stroke="url(#sw-gradient)"></path>
              </svg>